<svg xmlns="http://www.w3.org/2000/svg" xmlns:xlink="http://www.w3.org/1999/xlink" width="200" zoomAndPan="magnify" viewBox="0 0 150 37.5" height="50" preserveAspectRatio="xMidYMid meet" version="1.0"><defs><g/><clipPath id="dc6ed6d174"><path d="M 3.472656 2.03125 L 32.335938 2.03125 L 32.335938 30.894531 L 3.472656 30.894531 Z M 3.472656 2.03125 " clip-rule="nonzero"/></clipPath></defs><g clip-path="url(#dc6ed6d174)"><path fill="#5c8984" d="M 29.417969 30.332031 C 29.308594 30.679688 28.941406 30.875 28.59375 30.765625 C 28.246094 30.660156 28.054688 30.289062 28.160156 29.941406 C 28.164062 29.925781 29.339844 26.3125 26.1875 23.109375 C 25.464844 23.84375 24.050781 25.230469 23.003906 25.945312 C 23.109375 26.292969 23.132812 26.664062 23.082031 27.046875 C 22.992188 27.757812 22.636719 28.496094 22.039062 29.089844 C 21.445312 29.683594 20.707031 30.039062 19.996094 30.132812 C 19.230469 30.234375 18.488281 30.03125 17.960938 29.5 C 17.445312 28.984375 17.238281 28.265625 17.324219 27.515625 L 17.328125 27.460938 C 17.421875 26.753906 17.777344 26.015625 18.371094 25.421875 C 18.964844 24.824219 19.703125 24.46875 20.410156 24.378906 L 20.414062 24.375 C 21.101562 24.285156 21.765625 24.441406 22.277344 24.855469 C 23.171875 24.257812 24.492188 22.960938 25.203125 22.238281 C 23.863281 21.207031 21.984375 20.257812 19.359375 19.550781 C 19.003906 20.039062 18.351562 20.84375 17.574219 21.378906 C 17.628906 21.550781 17.667969 21.726562 17.699219 21.902344 C 17.839844 22.8125 17.636719 23.730469 17.148438 24.546875 C 16.683594 25.328125 15.949219 26.015625 15.019531 26.492188 C 14.460938 26.777344 13.832031 26.988281 13.148438 27.097656 C 11.765625 27.316406 10.394531 27.140625 9.058594 26.96875 C 7.410156 26.757812 5.816406 26.554688 4.503906 27.203125 C 4.175781 27.367188 3.78125 27.234375 3.621094 26.910156 C 3.46875 26.601562 3.578125 26.230469 3.867188 26.054688 L 3.871094 26.050781 C 4.058594 25.9375 8.65625 23.148438 9.480469 21.972656 C 10.007812 21.222656 10.890625 20.507812 11.875 20.007812 C 12.621094 19.625 13.433594 19.359375 14.203125 19.285156 C 15.042969 19.207031 15.839844 19.347656 16.476562 19.792969 C 16.644531 19.914062 16.800781 20.054688 16.941406 20.214844 C 17.355469 19.914062 17.730469 19.503906 18.011719 19.152344 C 17.042969 18.839844 16.167969 18.492188 15.382812 18.117188 C 14.28125 17.59375 13.34375 17.023438 12.542969 16.421875 C 12.273438 16.539062 12 16.609375 11.722656 16.632812 C 10.945312 16.707031 10.183594 16.433594 9.5 15.949219 C 8.867188 15.507812 8.292969 14.875 7.832031 14.171875 C 7.226562 13.246094 6.8125 12.1875 6.726562 11.273438 C 6.59375 9.859375 4.019531 5.21875 3.878906 4.964844 C 3.703125 4.671875 3.785156 4.285156 4.078125 4.089844 C 4.378906 3.882812 4.785156 3.960938 4.992188 4.261719 C 5.8125 5.480469 7.300781 6.09375 8.839844 6.726562 C 10.082031 7.238281 11.355469 7.761719 12.449219 8.640625 C 12.992188 9.074219 13.433594 9.566406 13.777344 10.09375 C 14.347656 10.964844 14.644531 11.929688 14.664062 12.84375 C 14.679688 13.789062 14.40625 14.691406 13.832031 15.40625 L 13.828125 15.40625 L 13.660156 15.605469 C 14.320312 16.070312 15.082031 16.515625 15.949219 16.929688 C 16.816406 17.339844 17.789062 17.714844 18.878906 18.046875 C 19.210938 17.6875 19.777344 17.023438 20.117188 16.339844 C 19.933594 16.222656 19.769531 16.089844 19.625 15.9375 C 19.085938 15.371094 18.828125 14.605469 18.78125 13.769531 C 18.742188 12.992188 18.878906 12.148438 19.144531 11.355469 C 19.492188 10.3125 20.070312 9.332031 20.734375 8.695312 C 21.746094 7.726562 23.75 2.953125 23.914062 2.5625 C 24.035156 2.230469 24.398438 2.054688 24.734375 2.160156 C 25.082031 2.269531 25.269531 2.644531 25.160156 2.988281 C 24.714844 4.386719 25.15625 5.933594 25.609375 7.53125 C 25.976562 8.824219 26.355469 10.152344 26.347656 11.554688 C 26.339844 12.25 26.230469 12.902344 26.03125 13.496094 C 25.699219 14.484375 25.132812 15.3125 24.421875 15.890625 C 23.691406 16.492188 22.8125 16.835938 21.894531 16.828125 C 21.714844 16.828125 21.539062 16.8125 21.359375 16.785156 C 21.074219 17.40625 20.644531 17.996094 20.277344 18.445312 C 22.890625 19.210938 24.792969 20.21875 26.175781 21.316406 C 26.621094 20.921875 27.105469 20.433594 27.457031 19.933594 C 27.636719 19.679688 27.78125 19.429688 27.859375 19.199219 C 27.273438 18.828125 26.917969 18.207031 26.808594 17.488281 C 26.699219 16.785156 26.835938 15.980469 27.246094 15.242188 C 27.652344 14.5 28.261719 13.957031 28.910156 13.671875 C 29.621094 13.359375 30.390625 13.351562 31.046875 13.714844 L 31.058594 13.71875 C 31.710938 14.085938 32.105469 14.734375 32.222656 15.496094 C 32.328125 16.199219 32.191406 17.003906 31.785156 17.742188 L 31.78125 17.75 C 31.371094 18.488281 30.765625 19.03125 30.117188 19.3125 C 29.792969 19.453125 29.460938 19.535156 29.132812 19.542969 C 29.007812 19.933594 28.796875 20.324219 28.535156 20.695312 C 28.148438 21.242188 27.640625 21.765625 27.164062 22.199219 C 30.84375 25.941406 29.425781 30.316406 29.417969 30.332031 Z M 28.601562 18.113281 C 28.730469 18.113281 28.851562 18.15625 28.953125 18.222656 C 29.152344 18.242188 29.371094 18.203125 29.589844 18.109375 C 29.976562 17.9375 30.34375 17.609375 30.605469 17.152344 C 30.621094 17.121094 30.636719 17.09375 30.65625 17.0625 C 30.902344 16.601562 30.984375 16.113281 30.921875 15.695312 C 30.867188 15.34375 30.707031 15.046875 30.449219 14.886719 L 30.375 14.84375 C 30.101562 14.714844 29.765625 14.734375 29.441406 14.878906 C 29.042969 15.050781 28.664062 15.398438 28.398438 15.871094 L 28.398438 15.875 C 28.132812 16.351562 28.042969 16.859375 28.109375 17.289062 C 28.164062 17.65625 28.332031 17.957031 28.601562 18.113281 Z M 21.136719 15.378906 L 21.140625 15.378906 L 21.164062 15.386719 L 21.167969 15.390625 L 21.175781 15.390625 C 21.421875 15.46875 21.667969 15.511719 21.902344 15.511719 C 22.503906 15.515625 23.089844 15.285156 23.585938 14.878906 C 24.105469 14.449219 24.527344 13.828125 24.78125 13.078125 C 24.9375 12.609375 25.027344 12.09375 25.027344 11.542969 C 25.039062 10.328125 24.6875 9.097656 24.34375 7.890625 C 24.15625 7.234375 23.972656 6.585938 23.839844 5.941406 C 23.128906 7.429688 22.269531 9.046875 21.644531 9.644531 C 21.136719 10.132812 20.679688 10.917969 20.394531 11.777344 C 20.179688 12.425781 20.0625 13.097656 20.09375 13.695312 C 20.125 14.234375 20.273438 14.710938 20.574219 15.023438 C 20.71875 15.175781 20.902344 15.296875 21.136719 15.378906 Z M 12.207031 15.109375 L 12.210938 15.109375 L 12.214844 15.105469 L 12.226562 15.097656 L 12.234375 15.09375 L 12.238281 15.089844 L 12.265625 15.074219 L 12.28125 15.0625 L 12.285156 15.058594 C 12.484375 14.921875 12.660156 14.761719 12.800781 14.582031 C 13.179688 14.113281 13.359375 13.507812 13.347656 12.867188 C 13.332031 12.195312 13.109375 11.476562 12.675781 10.8125 C 12.40625 10.40625 12.058594 10.015625 11.625 9.667969 C 10.679688 8.910156 9.492188 8.421875 8.335938 7.945312 C 7.703125 7.683594 7.082031 7.429688 6.492188 7.132812 C 7.21875 8.613281 7.957031 10.292969 8.039062 11.148438 C 8.109375 11.855469 8.441406 12.699219 8.933594 13.449219 C 9.308594 14.019531 9.765625 14.527344 10.261719 14.875 C 10.703125 15.1875 11.164062 15.363281 11.597656 15.320312 C 11.800781 15.300781 12.003906 15.234375 12.207031 15.109375 Z M 16.1875 21.449219 L 16.183594 21.441406 L 16.179688 21.4375 L 16.179688 21.429688 L 16.152344 21.375 L 16.148438 21.375 L 16.140625 21.359375 L 16.140625 21.355469 C 16.027344 21.148438 15.882812 20.992188 15.714844 20.871094 C 15.355469 20.617188 14.867188 20.542969 14.332031 20.59375 C 13.730469 20.652344 13.082031 20.867188 12.476562 21.175781 C 11.675781 21.585938 10.964844 22.15625 10.558594 22.738281 C 10.0625 23.4375 8.585938 24.53125 7.222656 25.460938 C 7.882812 25.492188 8.550781 25.578125 9.226562 25.664062 C 10.46875 25.824219 11.738281 25.984375 12.941406 25.796875 C 13.488281 25.707031 13.984375 25.542969 14.417969 25.320312 C 15.125 24.960938 15.671875 24.449219 16.019531 23.867188 C 16.347656 23.316406 16.488281 22.703125 16.394531 22.109375 C 16.359375 21.886719 16.292969 21.664062 16.1875 21.449219 Z M 21.621094 26.070312 L 21.613281 26.054688 L 21.609375 26.050781 L 21.605469 26.042969 C 21.578125 26.007812 21.550781 25.976562 21.519531 25.941406 C 21.292969 25.71875 20.953125 25.636719 20.582031 25.683594 C 20.152344 25.738281 19.691406 25.96875 19.304688 26.355469 C 18.917969 26.742188 18.6875 27.199219 18.632812 27.628906 L 18.625 27.671875 C 18.589844 28.023438 18.675781 28.347656 18.894531 28.566406 C 19.117188 28.792969 19.460938 28.875 19.832031 28.828125 C 20.257812 28.773438 20.71875 28.542969 21.105469 28.15625 C 21.492188 27.769531 21.71875 27.308594 21.777344 26.878906 C 21.816406 26.574219 21.769531 26.285156 21.621094 26.070312 " fill-opacity="1" fill-rule="evenodd"/></g><g fill="#374259" fill-opacity="1"><g transform="translate(33.871984, 28.997259)"><g><path d="M 2.578125 0 C 2.390625 0 2.222656 -0.0664062 2.078125 -0.203125 C 1.941406 -0.347656 1.875 -0.507812 1.875 -0.6875 L 1.875 -18.671875 C 1.875 -18.867188 1.941406 -19.03125 2.078125 -19.15625 C 2.222656 -19.289062 2.390625 -19.359375 2.578125 -19.359375 L 6.4375 -19.359375 C 6.644531 -19.359375 6.8125 -19.289062 6.9375 -19.15625 C 7.070312 -19.03125 7.140625 -18.867188 7.140625 -18.671875 L 7.140625 -4.34375 L 15.4375 -4.34375 C 15.632812 -4.34375 15.800781 -4.269531 15.9375 -4.125 C 16.082031 -3.988281 16.15625 -3.820312 16.15625 -3.625 L 16.15625 -0.6875 C 16.15625 -0.488281 16.082031 -0.320312 15.9375 -0.1875 C 15.800781 -0.0625 15.632812 0 15.4375 0 Z M 2.578125 0 "/></g></g></g><g fill="#374259" fill-opacity="1"><g transform="translate(58.835945, 28.997259)"><g><path d="M 4.28125 5.25 C 4.113281 5.25 3.972656 5.191406 3.859375 5.078125 C 3.753906 4.972656 3.703125 4.835938 3.703125 4.671875 C 3.703125 4.546875 3.722656 4.425781 3.765625 4.3125 L 5.953125 -0.890625 L 0.640625 -13.4375 C 0.578125 -13.582031 0.546875 -13.6875 0.546875 -13.75 C 0.585938 -13.925781 0.664062 -14.070312 0.78125 -14.1875 C 0.90625 -14.3125 1.050781 -14.375 1.21875 -14.375 L 4.515625 -14.375 C 4.898438 -14.375 5.164062 -14.179688 5.3125 -13.796875 L 8.375 -5.953125 L 11.53125 -13.796875 C 11.71875 -14.179688 11.992188 -14.375 12.359375 -14.375 L 15.625 -14.375 C 15.789062 -14.375 15.929688 -14.3125 16.046875 -14.1875 C 16.171875 -14.070312 16.234375 -13.941406 16.234375 -13.796875 C 16.234375 -13.671875 16.210938 -13.550781 16.171875 -13.4375 L 8.359375 4.671875 C 8.171875 5.054688 7.882812 5.25 7.5 5.25 Z M 4.28125 5.25 "/></g></g></g><g fill="#374259" fill-opacity="1"><g transform="translate(83.827528, 28.997259)"><g><path d="M 6.96875 0.28125 C 5.175781 0.28125 3.769531 -0.28125 2.75 -1.40625 C 1.726562 -2.53125 1.179688 -4.132812 1.109375 -6.21875 L 1.078125 -7.1875 L 1.109375 -8.1875 C 1.179688 -10.195312 1.734375 -11.773438 2.765625 -12.921875 C 3.796875 -14.078125 5.195312 -14.65625 6.96875 -14.65625 C 8.625 -14.65625 9.960938 -14.117188 10.984375 -13.046875 L 10.984375 -18.9375 C 10.984375 -19.144531 11.050781 -19.3125 11.1875 -19.4375 C 11.320312 -19.570312 11.484375 -19.640625 11.671875 -19.640625 L 15.234375 -19.640625 C 15.441406 -19.640625 15.613281 -19.570312 15.75 -19.4375 C 15.882812 -19.3125 15.953125 -19.144531 15.953125 -18.9375 L 15.953125 -0.6875 C 15.953125 -0.488281 15.882812 -0.320312 15.75 -0.1875 C 15.613281 -0.0625 15.441406 0 15.234375 0 L 11.953125 0 C 11.765625 0 11.597656 -0.0664062 11.453125 -0.203125 C 11.316406 -0.347656 11.25 -0.507812 11.25 -0.6875 L 11.25 -1.546875 C 10.257812 -0.328125 8.832031 0.28125 6.96875 0.28125 Z M 8.578125 -3.5625 C 9.367188 -3.5625 9.957031 -3.816406 10.34375 -4.328125 C 10.726562 -4.835938 10.941406 -5.476562 10.984375 -6.25 C 11.015625 -6.769531 11.03125 -7.117188 11.03125 -7.296875 C 11.03125 -7.503906 11.015625 -7.847656 10.984375 -8.328125 C 10.941406 -9.046875 10.722656 -9.640625 10.328125 -10.109375 C 9.929688 -10.578125 9.347656 -10.8125 8.578125 -10.8125 C 7.742188 -10.8125 7.144531 -10.566406 6.78125 -10.078125 C 6.425781 -9.585938 6.222656 -8.910156 6.171875 -8.046875 L 6.140625 -7.1875 L 6.171875 -6.328125 C 6.222656 -5.460938 6.425781 -4.785156 6.78125 -4.296875 C 7.144531 -3.804688 7.742188 -3.5625 8.578125 -3.5625 Z M 8.578125 -3.5625 "/></g></g></g><g fill="#374259" fill-opacity="1"><g transform="translate(109.731354, 28.997259)"><g><path d="M 2.265625 -16.375 C 2.066406 -16.375 1.898438 -16.441406 1.765625 -16.578125 C 1.640625 -16.710938 1.578125 -16.882812 1.578125 -17.09375 L 1.578125 -19.65625 C 1.578125 -19.863281 1.644531 -20.035156 1.78125 -20.171875 C 1.914062 -20.304688 2.078125 -20.375 2.265625 -20.375 L 5.71875 -20.375 C 5.925781 -20.375 6.097656 -20.304688 6.234375 -20.171875 C 6.367188 -20.035156 6.4375 -19.863281 6.4375 -19.65625 L 6.4375 -17.09375 C 6.4375 -16.882812 6.367188 -16.710938 6.234375 -16.578125 C 6.097656 -16.441406 5.925781 -16.375 5.71875 -16.375 Z M 2.265625 0 C 2.078125 0 1.914062 -0.0664062 1.78125 -0.203125 C 1.644531 -0.347656 1.578125 -0.507812 1.578125 -0.6875 L 1.578125 -13.6875 C 1.578125 -13.894531 1.644531 -14.0625 1.78125 -14.1875 C 1.914062 -14.3125 2.078125 -14.375 2.265625 -14.375 L 5.71875 -14.375 C 5.925781 -14.375 6.097656 -14.3125 6.234375 -14.1875 C 6.367188 -14.0625 6.4375 -13.894531 6.4375 -13.6875 L 6.4375 -0.6875 C 6.4375 -0.488281 6.367188 -0.320312 6.234375 -0.1875 C 6.097656 -0.0625 5.925781 0 5.71875 0 Z M 2.265625 0 "/></g></g></g><g fill="#374259" fill-opacity="1"><g transform="translate(126.125868, 28.997259)"><g><path d="M 8.328125 0.28125 C 6.078125 0.28125 4.304688 -0.320312 3.015625 -1.53125 C 1.722656 -2.738281 1.054688 -4.492188 1.015625 -6.796875 L 1.015625 -7.65625 C 1.097656 -9.851562 1.78125 -11.566406 3.0625 -12.796875 C 4.351562 -14.035156 6.097656 -14.65625 8.296875 -14.65625 C 9.878906 -14.65625 11.21875 -14.335938 12.3125 -13.703125 C 13.414062 -13.066406 14.238281 -12.191406 14.78125 -11.078125 C 15.320312 -9.960938 15.59375 -8.695312 15.59375 -7.28125 L 15.59375 -6.578125 C 15.59375 -6.378906 15.523438 -6.207031 15.390625 -6.0625 C 15.253906 -5.925781 15.082031 -5.859375 14.875 -5.859375 L 6.109375 -5.859375 L 6.109375 -5.703125 C 6.128906 -4.867188 6.320312 -4.195312 6.6875 -3.6875 C 7.0625 -3.1875 7.585938 -2.9375 8.265625 -2.9375 C 8.710938 -2.9375 9.066406 -3.019531 9.328125 -3.1875 C 9.597656 -3.363281 9.851562 -3.59375 10.09375 -3.875 C 10.257812 -4.0625 10.390625 -4.175781 10.484375 -4.21875 C 10.585938 -4.257812 10.753906 -4.28125 10.984375 -4.28125 L 14.609375 -4.28125 C 14.765625 -4.28125 14.90625 -4.226562 15.03125 -4.125 C 15.15625 -4.03125 15.21875 -3.910156 15.21875 -3.765625 C 15.21875 -3.285156 14.941406 -2.722656 14.390625 -2.078125 C 13.847656 -1.429688 13.054688 -0.875 12.015625 -0.40625 C 10.972656 0.0507812 9.742188 0.28125 8.328125 0.28125 Z M 10.515625 -8.6875 L 10.515625 -8.734375 C 10.515625 -9.617188 10.316406 -10.304688 9.921875 -10.796875 C 9.535156 -11.285156 8.992188 -11.53125 8.296875 -11.53125 C 7.597656 -11.53125 7.054688 -11.285156 6.671875 -10.796875 C 6.296875 -10.304688 6.109375 -9.617188 6.109375 -8.734375 L 6.109375 -8.6875 Z M 10.515625 -8.6875 "/></g></g></g></svg>